<svg width="89" height="100" viewBox="0 0 89 100" fill="none" xmlns="http://www.w3.org/2000/svg">
<g clip-path="url(#clip0_807_21)">
<path d="M88.7392 29.3237C88.7385 27.6467 88.3799 26.1647 87.6545 24.8928C86.942 23.6421 85.875 22.5939 84.4438 21.7651C72.6295 14.9529 60.8038 8.16159 48.9934 1.34249C45.8094 -0.495703 42.7222 -0.428689 39.5618 1.43589C34.8594 4.20916 11.316 17.6977 4.30035 21.7612C1.41111 23.4338 0.00520833 25.9935 0.00451389 29.3206C0 43.0203 0.00451389 56.7196 0 70.4196C0 72.0599 0.344097 73.513 1.0375 74.7658C1.75035 76.0543 2.83229 77.1314 4.29653 77.979C11.3125 82.0425 34.859 95.53 39.5604 98.3039C42.7222 100.17 45.8094 100.236 48.9944 98.3973C60.8052 91.5779 72.6316 84.7869 84.4476 77.9748C85.9118 77.1276 86.9938 76.0498 87.7066 74.7623C88.399 73.5095 88.7438 72.0564 88.7438 70.4158C88.7438 70.4158 88.7438 43.0237 88.7392 29.3237Z" fill="#A179DC"/>
<path d="M44.5076 49.7366L1.03748 74.7657C1.75032 76.0543 2.83227 77.1314 4.2965 77.9789C11.3125 82.0425 34.859 95.53 39.5604 98.3039C42.7222 100.17 45.8094 100.236 48.9944 98.3973C60.8052 91.5779 72.6316 84.7869 84.4475 77.9748C85.9118 77.1275 86.9937 76.0498 87.7066 74.7623L44.5076 49.7366Z" fill="#280068"/>
<path d="M88.7392 29.3237C88.7385 27.6466 88.3799 26.1647 87.6545 24.8928L44.5076 49.7366L87.7066 74.7623C88.3989 73.5095 88.743 72.0564 88.7437 70.4157C88.7437 70.4157 88.7437 43.0237 88.7392 29.3237Z" fill="#390091"/>
<path d="M70.1015 40.3799V45.0582H74.7799V40.3799H77.1191V45.0582H81.7974V47.3974H77.1191V52.0758H81.7974V54.415H77.1191V59.0933H74.7799V54.415H70.1015V59.0933H67.7624V54.415H63.084V52.0758H67.7624V47.3974H63.084V45.0582H67.7624V40.3799H70.1015ZM74.7799 47.3974H70.1015V52.0758H74.7799V47.3974Z" fill="white"/>
<path d="M44.6031 16.884C56.8058 16.884 67.4597 23.5112 73.1662 33.3618L73.1105 33.267L58.7534 41.5337C55.9247 36.7443 50.739 33.5122 44.7904 33.4456L44.6031 33.4446C35.5317 33.4446 28.1773 40.7985 28.1773 49.8699C28.1773 52.8364 28.9682 55.6172 30.3437 58.019C33.1749 62.9618 38.4974 66.2956 44.6031 66.2956C50.7464 66.2956 56.0992 62.9194 58.9161 57.9238L58.8477 58.0437L73.1832 66.3486C67.5394 76.1158 57.0314 82.7225 44.9705 82.8542L44.6031 82.8562C32.3619 82.8562 21.6776 76.1882 15.9855 66.2855C13.2067 61.4511 11.6168 55.8465 11.6168 49.8699C11.6168 31.6525 26.3849 16.884 44.6031 16.884Z" fill="white"/>
</g>
<defs>
<clipPath id="clip0_807_21">
<rect width="88.8889" height="100" fill="white"/>
</clipPath>
</defs>
</svg>
